PathFileType  4	(X/Y/Z) C:\Users\antoi\Documents\MyRepositories\mobilecap\ResultsAnalysis
DataRate	CameraRate	NumFrames	NumMarkers	Units	OrigDataRate	OrigDataStartFrame	OrigNumFrames
100.0	100.0	7	51	mm	100.0	136	271
Frame#	Time	r_knee			r_shank_antsup			r_ankle			r_calc			r_5meta			r_toe			L_knee			L_shank_antsup			L_ankle			L_calc			L_5meta			L_toe			r_sh2			r_sh3			r_sh4			L_sh2			L_sh3			r_thigh1			r_thigh2			r_thigh3			r_thigh4			r_thigh5			L_thigh1			L_thigh2			L_thigh3			L_thigh4			r.ASIS			r.PSIS			L.ASIS			L.PSIS			C7			R_Shoulder			L_Shoulder			R_Sternum			L_Sternum			R_humerus			R_elbow_med			R_elbow_lat			R_forearm			R_wrist_radius			R_wrist_ulna			L_humerus			L_elbow_med			L_elbow_lat			L_forearm			L_wrist_radius			L_wrist_ulna			R_HJC			L_HJC			R_HJC_reg			L_HJC_reg			
		X1	Y1	Z1	X2	Y2	Z2	X3	Y3	Z3	X4	Y4	Z4	X5	Y5	Z5	X6	Y6	Z6	X7	Y7	Z7	X8	Y8	Z8	X9	Y9	Z9	X10	Y10	Z10	X11	Y11	Z11	X12	Y12	Z12	X13	Y13	Z13	X14	Y14	Z14	X15	Y15	Z15	X16	Y16	Z16	X17	Y17	Z17	X18	Y18	Z18	X19	Y19	Z19	X20	Y20	Z20	X21	Y21	Z21	X22	Y22	Z22	X23	Y23	Z23	X24	Y24	Z24	X25	Y25	Z25	X26	Y26	Z26	X27	Y27	Z27	X28	Y28	Z28	X29	Y29	Z29	X30	Y30	Z30	X31	Y31	Z31	X32	Y32	Z32	X33	Y33	Z33	X34	Y34	Z34	X35	Y35	Z35	X36	Y36	Z36	X37	Y37	Z37	X38	Y38	Z38	X39	Y39	Z39	X40	Y40	Z40	X41	Y41	Z41	X42	Y42	Z42	X43	Y43	Z43	X44	Y44	Z44	X45	Y45	Z45	X46	Y46	Z46	X47	Y47	Z47	X48	Y48	Z48	X49	Y49	Z49	X50	Y50	Z50	X51	Y51	Z51	

136	1.35000000	-440.62026	731.27796	-409.88768	-391.80099	684.58894	-404.28844	-354.56974	346.93384	-378.78604	-409.59778	337.67434	-429.02188	-265.27746	258.38806	-360.42905	-217.77822	277.75582	-402.35806	-413.91903	724.71875	-781.06952	-357.32234	653.01633	-777.92105	-359.24297	342.20602	-821.20137	-417.35152	325.70901	-769.45014	-277.93090	245.24047	-838.77130	-220.78247	256.99761	-792.58940	-376.39025	575.36815	-379.22443	-466.29713	679.70096	-383.21643	-456.50614	562.95464	-366.90040	-438.17996	661.31330	-817.36007	-422.37093	539.65250	-838.03850	-480.24902	985.27936	-390.02056	-440.89263	878.65112	-395.73315	-491.35683	835.95417	-393.52875	-583.89075	944.87818	-411.30133	-540.08552	837.05099	-419.69577	-481.86508	996.72433	-798.54476	-425.04779	870.19770	-790.34258	-585.29479	953.88618	-791.62265	-529.57461	827.05160	-767.74712	-461.22605	1151.78086	-496.05722	-652.05142	1221.32600	-564.56186	-466.80874	1144.87518	-707.58493	-652.70257	1216.95876	-644.35683	-381.69347	1592.99339	-612.97603	-332.26354	1548.03347	-481.46210	-342.34535	1555.84345	-737.63692	-286.84351	1492.28907	-589.83655	-291.97550	1489.43363	-623.59878	-310.48611	1452.50429	-402.87362	-398.38023	1260.95549	-324.83042	-345.72772	1285.43998	-283.88671	-264.38559	1233.84984	-300.02940	-176.38683	1124.20772	-322.41647	-189.53435	1110.49041	-288.93383	-324.61585	1489.30259	-827.73434	-360.74378	1288.25217	-928.85552	-315.93934	1332.30444	-959.27315	-227.39394	1263.53086	-965.50413	-150.92641	1161.68059	-966.59714	-165.00538	1153.95007	-1002.04146	-556.69098	1083.39358	-493.27477	-560.21334	1077.97285	-700.68109	-544.41851	1104.08991	-521.46006	-545.55693	1096.45408	-660.97810	
137	1.36000000	-426.22202	714.74790	-410.09647	-376.81564	668.78982	-404.42865	-335.43550	331.78416	-379.09551	-389.69662	321.46745	-430.31521	-244.98144	243.95795	-360.18490	-197.35842	264.15687	-401.40124	-399.23387	708.56971	-782.12667	-341.15370	638.03065	-779.08711	-336.88417	326.99621	-821.92353	-394.06384	309.77152	-769.43933	-253.84779	230.69382	-838.59066	-196.44294	244.24752	-793.48233	-359.94047	559.74986	-379.51273	-451.64565	662.75976	-383.93646	-439.77431	546.12769	-367.47483	-422.38280	644.49984	-818.04669	-404.12570	523.17846	-838.72064	-467.61804	968.72040	-390.50102	-427.83165	862.59295	-395.76795	-477.83668	819.39661	-393.74797	-571.06020	927.83094	-411.17348	-526.51710	820.41326	-419.30170	-469.58254	980.27990	-799.29578	-411.87100	854.05210	-791.23564	-572.61935	936.72568	-792.54798	-515.93029	810.69167	-770.40267	-449.77283	1134.54765	-496.43706	-640.13366	1204.08571	-565.08413	-455.22713	1127.01544	-707.56419	-640.86383	1199.57632	-644.79223	-367.98459	1574.39314	-613.89355	-319.56610	1528.99392	-481.58304	-327.98368	1537.04315	-738.84346	-273.86441	1473.17598	-590.76596	-276.86037	1471.67703	-627.52882	-303.51963	1432.22479	-401.25594	-402.98081	1245.74930	-324.77834	-350.76488	1268.13245	-282.12191	-272.54634	1210.67194	-294.52747	-192.35064	1093.97963	-311.66319	-207.16091	1082.12243	-278.03604	-314.39412	1468.80289	-829.71553	-364.35790	1270.72365	-930.67880	-317.78793	1312.06886	-961.85611	-234.74908	1237.19421	-972.20202	-166.97608	1130.13029	-978.64669	-182.44653	1124.24179	-1013.33896	-545.22191	1066.28657	-493.30831	-548.65626	1060.26110	-700.69931	-532.79949	1086.89473	-521.61605	-534.07489	1079.01644	-660.86670	
138	1.37000000	-411.16522	697.41632	-410.32072	-361.20335	651.97572	-404.31874	-317.59103	315.05562	-379.72053	-371.06603	304.56837	-431.60988	-226.75450	227.38536	-360.38162	-178.74006	248.23596	-400.76389	-384.02256	691.45316	-783.08203	-324.46781	621.98210	-780.01614	-315.41204	310.84791	-822.56280	-371.90232	293.12248	-769.71615	-230.99813	215.11183	-838.66669	-173.44293	229.87489	-794.18820	-343.71837	542.93543	-379.83288	-435.26855	645.73864	-384.62741	-423.40500	528.60178	-368.24892	-405.94044	627.08534	-818.71727	-385.76847	506.11103	-839.65480	-455.02679	951.33286	-390.47827	-414.66533	845.80653	-395.04695	-463.79132	801.65161	-393.99973	-558.12291	909.50366	-411.11650	-512.45527	802.42344	-419.32003	-456.99110	962.91903	-799.62377	-398.26956	837.01321	-791.57894	-559.88960	918.73135	-793.93024	-501.86653	793.33123	-772.59409	-438.31435	1116.16106	-496.87949	-628.09111	1185.83974	-565.78100	-443.52014	1108.12028	-707.61377	-628.82721	1181.14181	-645.48996	-354.61935	1554.83432	-614.40627	-306.84626	1508.91594	-481.59914	-313.61513	1517.00631	-740.10399	-261.02534	1453.53293	-590.44049	-262.37406	1452.64770	-628.97202	-296.69522	1411.49180	-399.77436	-408.00751	1230.86504	-324.66311	-356.15495	1250.96583	-280.99860	-281.65550	1188.01110	-289.13041	-210.30345	1065.08468	-300.29218	-226.64744	1055.07066	-267.29683	-304.33871	1447.53607	-831.85135	-368.41671	1253.36263	-932.06004	-320.28233	1291.54060	-963.83853	-243.35931	1211.10799	-978.49521	-184.88329	1099.20494	-989.59909	-202.22841	1096.32122	-1024.22447	-533.77697	1048.07995	-493.51879	-536.95791	1041.52295	-700.89842	-521.21881	1068.71388	-521.89453	-522.50271	1060.52248	-660.87539	
139	1.38000000	-395.38257	679.31058	-410.26881	-345.00013	634.00422	-403.76106	-301.15784	296.75624	-380.69555	-354.02874	286.77463	-432.97161	-210.58170	208.73058	-361.10267	-162.06915	229.81285	-400.69029	-368.10035	673.61835	-783.90963	-307.17822	604.97383	-780.88006	-294.94463	293.85446	-823.18208	-351.15950	275.72880	-770.39295	-209.50994	198.70369	-839.55626	-152.17236	213.65242	-794.62020	-327.87520	524.75799	-379.71440	-418.02196	628.29560	-385.10719	-407.51387	510.20646	-369.25863	-388.86247	609.09806	-819.21099	-367.35732	488.34204	-840.27096	-442.44180	933.03029	-390.42576	-400.75747	828.09745	-394.41314	-449.16301	782.77383	-394.25727	-544.94285	889.66298	-411.33443	-497.76015	782.95471	-419.85887	-444.11091	944.64834	-799.65150	-384.03364	819.35815	-791.86583	-546.86526	899.63786	-795.07915	-487.26245	774.46579	-772.48278	-426.80347	1096.58307	-497.42640	-616.04657	1166.50332	-566.45204	-431.45247	1088.36065	-707.66178	-616.68142	1161.63924	-646.28278	-341.57434	1534.33410	-614.71839	-294.23041	1487.75552	-481.73538	-299.33612	1495.79126	-741.26913	-248.37059	1433.24139	-589.22793	-249.06396	1431.89785	-627.61171	-289.97996	1390.19731	-398.43766	-413.33604	1216.58233	-324.35594	-361.47953	1233.66210	-281.08855	-291.57717	1165.85001	-283.95842	-229.74794	1037.51529	-289.14286	-247.64372	1029.56618	-256.87735	-294.50729	1425.38159	-833.86431	-372.83526	1236.31125	-932.86369	-323.17394	1270.89486	-965.56154	-252.99245	1185.45781	-984.08788	-204.67608	1068.42467	-999.04250	-223.26968	1069.54316	-1034.26189	-522.24534	1028.64496	-493.93205	-524.98438	1021.88519	-701.31122	-509.55410	1049.51649	-522.39478	-510.65736	1041.07008	-661.02870	
140	1.39000000	-378.65953	660.39364	-409.74259	-328.07966	614.74128	-402.60849	-286.22820	277.07586	-382.11444	-338.78390	267.89456	-434.31054	-196.25317	188.20942	-362.40507	-147.29413	209.27937	-401.79966	-351.16709	655.31417	-784.70937	-289.22940	586.83888	-781.46937	-275.69997	275.95331	-823.76636	-332.12232	257.44430	-771.54718	-189.76483	180.93947	-840.44476	-132.90515	195.53705	-794.61758	-312.18369	505.09299	-379.26040	-400.91100	609.65725	-385.26784	-391.91208	490.87067	-370.31398	-370.89267	590.64796	-819.77363	-348.84003	470.00813	-840.75870	-429.58608	913.74068	-390.67817	-385.89547	809.25650	-394.29729	-434.00098	763.15568	-394.31937	-531.32751	868.36731	-411.66844	-482.39639	762.41484	-420.27656	-431.14042	925.47092	-799.77162	-369.08609	801.16000	-792.30986	-533.30981	879.06444	-794.91970	-471.94501	754.26038	-770.95214	-415.24291	1075.91333	-498.09439	-604.02641	1146.06363	-567.12094	-419.19716	1067.63672	-707.76115	-604.57950	1141.08027	-646.92707	-328.48107	1512.68087	-615.47673	-281.76347	1465.48352	-482.10716	-285.18671	1473.46582	-742.33135	-235.68961	1411.51976	-588.44153	-236.11313	1409.61504	-626.74679	-283.34681	1368.28639	-397.20206	-418.60818	1202.64522	-324.40102	-366.75912	1216.62444	-281.50623	-302.21498	1144.41457	-279.18607	-250.26887	1011.14505	-278.93144	-269.86116	1005.76706	-247.12940	-284.96510	1402.22001	-835.47347	-377.22151	1219.09674	-932.86917	-326.31661	1250.46535	-967.49208	-263.45819	1160.38153	-988.88367	-226.10357	1038.72432	-1007.30286	-244.88305	1043.55968	-1042.71838	-510.60668	1008.06522	-494.43458	-512.92083	1001.27336	-701.81771	-497.75374	1029.25847	-523.00752	-498.71175	1020.62640	-661.24769	
141	1.40000000	-360.84377	640.71596	-408.91926	-310.17984	594.31305	-401.22674	-272.62666	256.18856	-383.90972	-325.45634	247.63285	-436.08005	-183.76926	166.00193	-364.33393	-134.59631	186.40552	-403.77821	-333.05554	636.56022	-785.47990	-270.50394	567.51244	-781.69897	-257.87524	256.94901	-824.28262	-314.95294	238.32555	-773.04472	-172.18430	161.29019	-840.35150	-115.76502	175.44752	-793.94773	-296.11322	484.07945	-378.93768	-383.61731	589.76799	-385.04970	-376.10773	470.81122	-371.11962	-351.87111	571.88531	-820.54261	-330.20385	451.56788	-842.20430	-416.44622	893.42152	-390.92688	-370.79192	789.36412	-394.05124	-418.27375	743.02987	-393.76485	-517.24843	845.85392	-412.03122	-466.37502	741.17825	-420.05093	-417.90253	905.45957	-799.93456	-353.50216	782.28322	-792.87693	-519.14992	857.08486	-794.04681	-455.68662	733.27666	-770.22640	-403.71566	1053.84403	-498.86990	-592.03042	1124.43941	-567.95156	-407.22488	1045.53101	-708.14148	-592.56804	1119.39987	-647.53690	-315.26157	1489.66273	-616.63906	-269.40895	1442.17766	-482.49103	-271.25577	1449.99806	-743.38040	-222.99327	1388.18637	-588.52726	-223.15854	1386.05156	-627.35800	-276.76373	1345.71270	-396.17125	-423.50016	1188.86687	-325.17857	-372.49477	1200.48759	-281.00799	-313.31536	1123.97530	-274.83541	-271.75082	986.23892	-269.58806	-293.05158	983.90039	-237.89561	-275.73873	1378.14588	-836.79872	-381.31756	1201.48918	-932.47030	-329.61102	1230.25212	-969.17808	-274.49312	1135.87461	-992.92437	-248.26263	1011.43115	-1014.53450	-266.95012	1018.81136	-1049.39379	-499.11309	986.20547	-495.07477	-501.18380	979.40077	-702.46056	-486.10524	1007.59203	-523.71674	-487.03707	998.85529	-661.68468	
142	1.41000000	-341.98119	620.39057	-408.08267	-291.12161	572.92498	-400.14984	-260.60874	234.41703	-385.65637	-314.15253	226.69734	-437.73023	-173.71495	142.52181	-366.42015	-124.79877	161.33510	-405.36901	-313.74029	617.28549	-786.21383	-250.89265	547.19961	-782.01877	-242.15603	236.68893	-824.68213	-300.22032	218.47331	-774.52058	-157.26279	140.15704	-839.56244	-101.18642	153.76643	-792.71018	-279.31682	462.08456	-378.78585	-365.05644	569.61297	-384.34644	-359.60890	450.38104	-371.44109	-331.87434	552.87087	-821.64351	-311.52315	432.88804	-844.68674	-403.31327	871.86663	-390.85045	-355.34667	768.90224	-393.10363	-401.84473	722.15316	-392.62250	-502.87172	822.32501	-412.34682	-449.60227	719.12003	-419.32147	-403.87922	884.71921	-799.59601	-337.39851	762.68600	-793.41620	-504.47448	834.13424	-794.04710	-438.39038	711.77840	-770.81312	-392.23792	1030.29182	-499.66525	-580.13179	1101.50403	-568.94171	-395.60382	1021.88565	-708.68033	-580.66013	1096.40085	-648.39008	-302.15951	1465.28097	-617.63212	-257.28178	1417.85012	-482.81553	-257.70784	1425.37441	-744.36563	-210.47408	1363.72553	-588.77829	-210.47080	1361.42223	-627.93011	-270.27981	1322.43158	-395.47395	-427.93215	1175.31551	-326.59691	-378.47793	1185.04123	-280.06657	-324.58963	1104.34159	-270.72986	-294.07212	963.36741	-260.67470	-316.40017	964.28017	-228.83075	-266.79783	1353.30664	-838.13886	-385.37920	1184.06095	-931.99943	-332.97345	1209.85570	-969.67059	-285.77593	1111.91782	-996.22241	-270.19454	986.39368	-1020.49438	-289.27348	995.58215	-1054.64091	-487.85079	962.99899	-495.80242	-489.74668	956.06091	-703.18528	-474.69814	984.43911	-524.46178	-475.61461	975.58826	-662.25398	
